<svg width="651" height="427" viewBox="0 0 651 427" fill="none" xmlns="http://www.w3.org/2000/svg">
<path fill-rule="evenodd" clip-rule="evenodd" d="M336.169 16.5936C374.234 13.585 423.976 -16.5255 448.697 12.5756C477.709 46.7278 422.565 105.855 444.965 144.666C467.358 183.467 532.644 172.948 561.184 207.48C603.449 258.62 674.035 326.019 643.545 384.943C613.812 442.405 517.902 427.441 454.833 413.012C403.876 401.354 375.741 348.775 336.169 314.62C321.998 302.389 314.056 282.623 296.437 276.297C272.583 267.733 246.436 279.274 221.748 273.54C145.349 255.799 4.74326 285.774 0.0953748 207.48C-4.42508 131.332 152.961 182.974 213.627 136.73C243.013 114.329 207.077 55.4553 233.463 29.5876C258.532 5.01103 301.172 19.3598 336.169 16.5936Z" fill="url(#paint0_linear_47_3435)"/>
<defs>
<linearGradient id="paint0_linear_47_3435" x1="411" y1="90.5" x2="152" y2="364" gradientUnits="userSpaceOnUse">
<stop stop-color="#FCC607"/>
<stop offset="1" stop-color="#FC2207"/>
</linearGradient>
</defs>
</svg>
