<svg width="423" height="464" viewBox="0 0 423 464" fill="none" xmlns="http://www.w3.org/2000/svg">
<path fill-rule="evenodd" clip-rule="evenodd" d="M142.172 1.2133C188.844 -9.95915 222.266 58.5553 240.586 102.912C255.9 139.993 225.461 181.554 232.931 220.971C237.092 242.927 258.106 256.615 272.891 273.371C322.075 329.113 435.963 361.694 421.425 434.598C409.341 495.201 300.896 436.305 239.333 441.659C205.996 444.558 175.622 458.015 142.172 458.882C107.986 459.769 63.7928 473.174 42.0579 446.773C17.555 417.009 47.7393 370.604 38.6524 333.138C32.9635 309.681 0.255706 297.506 0.00181254 273.371C-0.251872 249.256 26.1905 234.233 37.3873 212.874C49.1876 190.363 56.3806 167.086 67.657 144.308C91.93 95.2774 88.9648 13.9499 142.172 1.2133Z" fill="url(#paint0_linear_47_3436)"/>
<defs>
<linearGradient id="paint0_linear_47_3436" x1="246" y1="26.5" x2="1.21268e-05" y2="366" gradientUnits="userSpaceOnUse">
<stop stop-color="#FC2207"/>
<stop offset="1" stop-color="#FCC607"/>
</linearGradient>
</defs>
</svg>
