<svg width="56" height="56" viewBox="0 0 56 56" fill="none" xmlns="http://www.w3.org/2000/svg">
<path fill-rule="evenodd" clip-rule="evenodd" d="M22.2825 3.90996C24.3511 5.97856 26.3402 9.2675 27.7858 12.8127C29.248 9.00423 31.3617 5.41505 33.5657 3.21111C38.7579 -1.98113 46.4177 -0.31236 50.9397 4.20962C55.4617 8.7316 57.7296 15.7923 51.9382 21.5837C49.3497 24.1722 45.4568 26.4341 41.4724 27.8593C45.8075 29.3105 50.0527 31.6804 52.5373 34.165C57.7295 39.3573 56.0607 47.0171 51.5388 51.5391C47.0168 56.061 39.9561 58.3289 34.1647 52.5376C31.5013 49.8741 29.1837 45.8299 27.7675 41.7258C26.338 45.6214 24.1173 49.4046 21.5836 51.9383C15.7922 57.7297 8.73152 55.4618 4.20955 50.9398C-0.312434 46.4178 -1.98121 38.758 3.21104 33.5658C5.37469 31.4021 8.87339 29.3254 12.604 27.8667C9.25968 26.4513 6.11261 24.4852 3.90994 22.2825C-1.88141 16.4912 0.386466 9.43044 4.90845 4.90846C9.43042 0.386485 17.0902 -1.28229 22.2825 3.90996ZM35.9372 20.0238C31.4818 24.2988 24.4624 24.3476 19.9481 20.1349C24.2231 24.5903 24.2718 31.6096 20.0591 36.124C24.5145 31.8489 31.5339 31.8002 36.0482 36.0129C31.7732 31.5575 31.7245 24.5382 35.9372 20.0238Z" fill="#232323"/>
</svg>
