<svg width="63" height="63" viewBox="0 0 63 63" fill="none" xmlns="http://www.w3.org/2000/svg">
<path d="M42.066 28.8545C38.5993 28.8545 38.1195 32.3092 38.1195 32.3092H45.4847C45.4847 32.3092 45.5327 28.8545 42.066 28.8545ZM25.3563 32.3092H18.8308V38.3069H25.0325C25.9681 38.2829 27.7194 38.019 27.7194 35.392C27.7194 32.2732 25.3563 32.3092 25.3563 32.3092Z" fill="#232323"/>
<path d="M31.498 4.67188C16.6596 4.67188 4.62817 16.7033 4.62817 31.5417C4.62817 46.3801 16.6596 58.4115 31.498 58.4115C46.3364 58.4115 58.3678 46.3801 58.3678 31.5417C58.3678 16.7033 46.3364 4.67188 31.498 4.67188ZM37.1598 21.1776H46.4083V23.9366H37.1598V21.1776ZM32.4816 35.6681C32.4816 42.5055 25.3563 42.2896 25.3563 42.2896H13.6967V19.8581H25.3563C28.907 19.8581 31.7019 21.8134 31.7019 25.8318C31.7019 29.8503 28.2832 30.1022 28.2832 30.1022C32.7935 30.1022 32.4816 35.6681 32.4816 35.6681ZM49.779 35.2963H38.1555C38.1555 39.4587 42.102 39.1948 42.102 39.1948C45.8325 39.1948 45.7006 36.7837 45.7006 36.7837H49.6471C49.6471 43.1893 41.97 42.7454 41.97 42.7454C32.7695 42.7454 33.3573 34.1687 33.3573 34.1687C33.3573 34.1687 33.3453 25.556 41.97 25.556C51.0506 25.568 49.779 35.2963 49.779 35.2963Z" fill="#232323"/>
<path d="M26.9397 26.1806C26.9397 23.8535 25.3563 23.8535 25.3563 23.8535H18.8308V28.8556H24.9485C26.0041 28.8556 26.9397 28.5078 26.9397 26.1806Z" fill="#232323"/>
</svg>
