<svg width="67" height="66" viewBox="0 0 67 66" fill="none" xmlns="http://www.w3.org/2000/svg">
<path d="M33.2896 7.21875C28.1905 7.21875 23.206 8.73079 18.9663 11.5637C14.7266 14.3966 11.4221 18.423 9.47079 23.134C7.51947 27.8449 7.00892 33.0286 8.00369 38.0297C8.99847 43.0308 11.4539 47.6246 15.0595 51.2301C18.665 54.8357 23.2588 57.2911 28.2599 58.2859C33.261 59.2807 38.4447 58.7701 43.1556 56.8188C47.8666 54.8675 51.893 51.563 54.7259 47.3233C57.5588 43.0836 59.0708 38.0991 59.0708 33C59.0633 26.1647 56.3447 19.6115 51.5114 14.7782C46.6781 9.9449 40.1249 7.22626 33.2896 7.21875ZM56.9877 32.0796C55.9771 32.0074 54.9458 31.9688 53.9146 31.9688C49.8516 31.9698 45.8098 32.555 41.9134 33.7064C40.9701 30.6719 39.6866 27.7539 38.0875 25.0078C37.9611 24.7964 37.8297 24.585 37.7008 24.3736C41.9331 21.965 45.7176 18.8434 48.8872 15.1465C51.3209 17.2673 53.2949 19.8636 54.688 22.7756C56.0811 25.6877 56.8637 28.8539 56.9877 32.0796ZM47.2759 13.8574C44.2464 17.3808 40.6301 20.3534 36.587 22.6437C33.4244 17.9808 29.3669 13.9925 24.6503 10.9106C28.3646 9.4567 32.386 8.96448 36.3414 9.47963C40.2967 9.99479 44.0579 11.5006 47.2759 13.8574ZM22.4047 11.9316C27.3024 14.9096 31.5117 18.8939 34.754 23.6208C29.1751 26.4047 23.0244 27.8506 16.7896 27.8438C14.6024 27.8481 12.4185 27.6756 10.2592 27.3281C11.0742 24.0465 12.579 20.9761 14.6732 18.3213C16.7674 15.6666 19.403 13.4883 22.4047 11.9316ZM9.57081 33C9.57095 31.7742 9.66577 30.5503 9.85441 29.3391C12.1468 29.7165 14.4663 29.9062 16.7896 29.9063C23.4219 29.9141 29.9626 28.3578 35.8806 25.3636C36.0224 25.5956 36.1668 25.8251 36.3034 26.0597C37.8277 28.6724 39.0506 31.4496 39.9489 34.3381C37.4818 35.1979 35.1004 36.2863 32.8358 37.5891C26.9725 40.9722 22.0016 45.7062 18.3364 51.3975C15.5978 49.1771 13.3896 46.373 11.873 43.1901C10.3565 40.0072 9.56997 36.5257 9.57081 33ZM19.9968 52.635C23.4912 47.1679 28.2482 42.6205 33.8671 39.3757C35.9824 38.1578 38.2055 37.1377 40.5083 36.3284C41.3461 39.5951 41.7705 42.954 41.7716 46.3264C41.7717 49.4239 41.4161 52.5112 40.712 55.5277C37.2671 56.663 33.6077 56.9926 30.0154 56.4911C26.4231 55.9896 22.9938 54.6704 19.9916 52.635H19.9968ZM43.0194 54.6305C43.5638 51.896 43.8384 49.1146 43.8393 46.3264C43.8381 42.7372 43.3807 39.1628 42.478 35.689C46.1909 34.5903 50.0426 34.032 53.9146 34.0313C54.9458 34.0313 55.9616 34.0699 56.9774 34.1473C56.7611 38.5153 55.3435 42.7389 52.8807 46.353C50.418 49.967 47.0056 52.8314 43.0194 54.6305Z" fill="#232323"/>
</svg>
