<svg width="54" height="54" viewBox="0 0 54 54" fill="none" xmlns="http://www.w3.org/2000/svg">
<path fill-rule="evenodd" clip-rule="evenodd" d="M3.58401 3.20721C6.67891 0.161326 12.076 -0.189479 18.5137 2.01364C21.1023 2.89953 23.8281 4.1899 26.5887 5.85177C22.7137 8.19911 18.7899 11.2404 15.0816 14.8901C11.3734 18.5395 8.26986 22.4142 5.861 26.2511C4.24343 23.4643 2.99675 20.7183 2.15231 18.1159C0.0522149 11.6439 0.489119 6.2531 3.58401 3.20721ZM5.50354 26.8285C-0.320042 16.9343 -1.57795 7.4456 3.16315 2.77958C7.90427 -1.88646 17.3718 -0.47724 27.1718 5.50357C37.0658 -0.319802 46.5544 -1.57761 51.2203 3.16342C55.8863 7.90448 54.4772 17.3718 48.4966 27.1717C54.32 37.0657 55.5778 46.5543 50.8368 51.2203C46.0957 55.8862 36.6285 54.4771 26.8287 48.4966C16.9344 54.3202 7.44566 55.5782 2.77962 50.837C-1.8864 46.0959 -0.477206 36.6285 5.50354 26.8285ZM26.2512 48.1391C23.4644 49.7567 20.7184 51.0034 18.116 51.8479C11.644 53.948 6.25314 53.5111 3.20726 50.4162C0.161373 47.3213 -0.189434 41.9241 2.01369 35.4865C2.89956 32.8979 4.1899 30.1722 5.85174 27.4116C8.19905 31.2865 11.2403 35.2101 14.8898 38.9183C18.5394 42.6267 22.4141 45.7303 26.2512 48.1391ZM26.8342 47.7957C22.9559 45.3923 19.0229 42.2626 15.3174 38.4975C11.6121 34.7325 8.54558 30.7502 6.20449 26.8341C8.60779 22.9559 11.7374 19.0231 15.5024 15.3177C19.2676 11.6122 23.25 8.54564 27.1662 6.20451C31.0444 8.60781 34.9772 11.7374 38.6825 15.5024C42.388 19.2675 45.4545 23.2499 47.7956 27.1661C45.3923 31.0444 42.2626 34.9773 38.4975 38.6828C34.7326 42.3881 30.7503 45.4546 26.8342 47.7957ZM27.4117 48.1484C30.1722 49.8101 32.8978 51.1004 35.4862 51.9862C41.9239 54.1893 47.321 53.8385 50.4159 50.7926C53.5108 47.7468 53.9477 42.3559 51.8476 35.8839C51.0032 33.2816 49.7566 30.5358 48.1391 27.7491C45.7302 31.5861 42.6267 35.4608 38.9184 39.1104C35.2102 42.7599 31.2866 45.8011 27.4117 48.1484ZM48.1484 26.5886C49.8101 23.8281 51.1004 21.1025 51.9863 18.514C54.1894 12.0763 53.8386 6.67918 50.7927 3.58429C47.7468 0.489394 42.3559 0.0524896 35.8839 2.15258C33.2817 2.99699 30.5359 4.24358 27.7492 5.86103C31.5861 8.26988 35.4607 11.3734 39.1101 15.0815C42.7597 18.7898 45.801 22.7136 48.1484 26.5886ZM27 13.7847L27.2145 21.5541C27.2944 24.4483 29.6218 26.7756 32.5159 26.8555L40.2854 27.0701L32.5159 27.2846C29.6218 27.3645 27.2944 29.6918 27.2145 32.586L27 40.3554L26.7855 32.586C26.7055 29.6918 24.3782 27.3645 21.4841 27.2846L13.7146 27.0701L21.4841 26.8555C24.3782 26.7756 26.7055 24.4483 26.7855 21.5541L27 13.7847Z" fill="#232323"/>
</svg>
