<svg width="50" height="49" viewBox="0 0 50 49" fill="none" xmlns="http://www.w3.org/2000/svg">
<path d="M24.8948 0.417969C21.6255 0.417969 18.3883 1.06189 15.368 2.31297C12.3476 3.56405 9.6032 5.39778 7.29151 7.70948C2.62283 12.3782 0 18.7102 0 25.3127C0 36.3162 7.1448 45.6518 17.028 48.9628C18.2728 49.1619 18.6711 48.3902 18.6711 47.718V43.5108C11.7752 45.0045 10.3064 40.1749 10.3064 40.1749C9.16128 37.2871 7.54312 36.5154 7.54312 36.5154C5.27769 34.9719 7.71738 35.0217 7.71738 35.0217C10.2069 35.196 11.5263 37.5859 11.5263 37.5859C13.6921 41.3699 17.3517 40.2496 18.7707 39.6521C18.9947 38.034 19.642 36.9386 20.339 36.3162C14.8124 35.6939 9.01191 33.5529 9.01191 24.068C9.01191 21.3047 9.95791 19.089 11.5761 17.3215C11.3271 16.6991 10.4558 14.1101 11.825 10.7493C11.825 10.7493 13.9162 10.0771 18.6711 13.2886C20.6378 12.7409 22.7787 12.467 24.8948 12.467C27.0108 12.467 29.1518 12.7409 31.1185 13.2886C35.8734 10.0771 37.9645 10.7493 37.9645 10.7493C39.3337 14.1101 38.4624 16.6991 38.2135 17.3215C39.8316 19.089 40.7776 21.3047 40.7776 24.068C40.7776 33.5778 34.9523 35.669 29.4007 36.2913C30.2969 37.0631 31.1185 38.5817 31.1185 40.8969V47.718C31.1185 48.3902 31.5168 49.1868 32.7864 48.9628C42.6696 45.6269 49.7895 36.3162 49.7895 25.3127C49.7895 22.0435 49.1456 18.8063 47.8945 15.7859C46.6435 12.7655 44.8097 10.0212 42.498 7.70948C40.1863 5.39778 37.442 3.56405 34.4216 2.31297C31.4012 1.06189 28.164 0.417969 24.8948 0.417969Z" fill="#232323"/>
</svg>
