<svg width="381" height="374" viewBox="0 0 381 374" fill="none" xmlns="http://www.w3.org/2000/svg">
<path fill-rule="evenodd" clip-rule="evenodd" d="M68.4439 35.4455C80.3874 22.4949 90.8126 6.55101 108.532 1.85861C126.25 -2.8337 147.812 7.84128 167.456 9.22474C188.387 10.6988 207.804 3.72981 229.059 10.3469C251.103 17.2096 280.644 25.6133 291.106 47.7189C304.212 75.4126 282.86 100.007 284.771 128.071C285.783 142.918 289.375 159.695 299.622 172.756C322.832 202.34 376.575 216.056 380.376 249.933C383.506 277.833 333.318 264.351 311.025 274.392C296.422 280.969 280.15 286.157 271.02 299.186C256.419 320.021 267.189 363.727 242.603 372.03C221.313 379.221 196.21 344.535 172.135 332.583C151.365 322.271 126.774 322.902 109.483 305.94C91.6683 288.465 91.8556 261.215 78.2237 240.459C65.8814 221.666 45.9116 208.914 33.4565 190.182C19.3568 168.977 -0.791085 145.594 0.375067 123.378C1.56982 100.618 26.8704 93.007 39.4076 76.8111C49.7676 63.4277 57.0271 47.825 68.4439 35.4455Z" fill="url(#paint0_linear_3_827)"/>
<defs>
<linearGradient id="paint0_linear_3_827" x1="150.222" y1="-40.9959" x2="77.2593" y2="405.923" gradientUnits="userSpaceOnUse">
<stop stop-color="#FC2207"/>
<stop offset="1" stop-color="#FCC607"/>
</linearGradient>
</defs>
</svg>
