<svg width="342" height="320" viewBox="0 0 342 320" fill="none" xmlns="http://www.w3.org/2000/svg">
<path fill-rule="evenodd" clip-rule="evenodd" d="M107.63 36.5156C124.719 24.2573 141.426 9.49317 161.176 4.02699C180.926 -1.43912 198.638 6.26212 217.993 5.97095C238.615 5.6607 260.963 -1.92965 279.929 2.24046C299.6 6.56536 326.266 11.6665 328.328 30.23C330.912 53.4863 299.804 76.6642 290.911 101.101C286.206 114.029 283.369 128.451 288.704 139.109C300.787 163.248 349.908 171.15 340.684 200.534C333.088 224.735 287.477 216.765 261.032 227.266C243.709 234.145 225.233 239.934 210.962 252.046C188.14 271.415 182.179 308.876 154.084 318.031C129.754 325.958 117.722 297.495 97.9597 288.867C80.9096 281.424 55.7689 283.858 44.8072 270.323C33.5141 256.378 44.2184 232.493 38.4256 215.354C33.1809 199.837 17.883 190.194 12.5007 174.738C6.40757 157.242 -4.9687 138.301 4.78397 118.751C14.7758 98.7223 43.3282 90.1192 62.2709 74.9726C77.924 62.4564 91.2942 48.2333 107.63 36.5156Z" fill="url(#paint0_linear_5_829)"/>
<defs>
<linearGradient id="paint0_linear_5_829" x1="219.922" y1="-36.7025" x2="285.089" y2="170.189" gradientUnits="userSpaceOnUse">
<stop stop-color="#FC2207"/>
<stop offset="1" stop-color="#FCC607"/>
</linearGradient>
</defs>
</svg>
