<svg width="59" height="59" viewBox="0 0 59 59" fill="none" xmlns="http://www.w3.org/2000/svg">
<g clip-path="url(#clip0_332_294)">
<path d="M35.9249 22.4034C34.7013 22.4034 33.7953 22.7121 33.0861 23.1019C32.9724 22.6976 32.5988 22.4016 32.1585 22.4901H26.7733C26.2409 22.4016 25.8096 22.833 25.9738 23.3924V43.244C25.8096 43.7493 26.2409 44.1824 26.7733 44.1463H32.1585C32.6909 44.1824 33.1222 43.7493 33.1222 43.2169L33.1204 31.2194C33.1186 31.2139 33.0987 30.6401 33.4615 30.2448C33.752 29.9308 34.2519 29.7702 34.9431 29.7702C36.0945 29.7702 36.607 30.2412 36.7983 31.2952V43.2169C36.6088 43.7493 37.0402 44.1824 37.5725 44.1463H43.2483C43.7807 44.1824 44.212 43.7493 44.0207 43.2169V30.8945C44.2102 24.6286 39.7472 22.4034 35.9249 22.4034ZM42.2828 42.3416H38.5363V31.2952C38.5363 29.1638 37.1593 27.8428 34.9449 27.8428C33.6925 27.8428 32.7179 28.2109 32.0466 28.9364C31.1136 29.947 31.1858 31.2284 31.3861 31.5135V42.3416H27.737V24.3309H31.1948V24.9372C31.1934 25.1179 31.2429 25.2952 31.3378 25.449C31.4327 25.6027 31.569 25.7265 31.7311 25.8063C31.8932 25.886 32.0745 25.9184 32.2542 25.8997C32.4338 25.881 32.6046 25.812 32.7468 25.7006L32.9995 25.5057C33.7304 24.93 34.4865 24.3327 35.9267 24.3327C37.4173 24.3327 42.2846 24.8073 42.2846 30.8963L42.2828 42.3416ZM20.5579 13.4053C18.5331 13.4053 16.8872 15.0511 16.8872 17.076C16.8872 19.1009 18.5331 20.7467 20.5579 20.7467C22.5828 20.7467 24.2287 19.1009 24.2287 17.076C24.2287 15.0511 22.5828 13.4053 20.5579 13.4053ZM20.5579 18.8193C19.5979 18.8193 18.8146 18.0361 18.8146 17.076C18.8146 16.1159 19.5979 15.3327 20.5579 15.3327C21.518 15.3327 22.3013 16.1159 22.3013 17.076C22.3013 18.0361 21.518 18.8193 20.5579 18.8193ZM23.135 22.4016H17.7787C17.2463 22.4016 16.815 22.833 16.9486 23.3924V43.244C16.815 43.7493 17.2463 44.1824 17.7787 44.1463H23.135C23.6674 44.1824 24.0987 43.7493 24.0987 43.2169V23.3653C24.0987 23.1098 23.9972 22.8646 23.8165 22.6839C23.6358 22.5032 23.3906 22.4016 23.135 22.4016ZM22.3626 42.3416H18.7424V24.3309H22.3626V42.3416Z" fill="#232323"/>
<path d="M29.5814 0.772461C13.6243 0.772461 0.64502 13.7518 0.64502 29.7088C0.64502 45.6659 13.6243 58.6452 29.5814 58.6452C45.5385 58.6452 58.5178 45.6659 58.5178 29.7088C58.5178 13.7518 45.5385 0.772461 29.5814 0.772461ZM29.5814 56.7178C14.6891 56.7178 2.57243 44.6011 2.57243 29.7088C2.57243 14.8165 14.6891 2.69987 29.5814 2.69987C44.4737 2.69987 56.5904 14.8165 56.5904 29.7088C56.5904 44.6011 44.4737 56.7178 29.5814 56.7178Z" fill="#232323"/>
</g>
<defs>
<clipPath id="clip0_332_294">
<rect width="57.75" height="57.75" fill="white" transform="translate(0.706299 0.833008)"/>
</clipPath>
</defs>
</svg>
