<svg width="57" height="66" viewBox="0 0 57 66" fill="none" xmlns="http://www.w3.org/2000/svg">
<path fill-rule="evenodd" clip-rule="evenodd" d="M28.4138 -0.0001502L28.8306 21.2154C29.3937 24.2341 30.9236 26.9104 33.0872 28.9116C33.7583 28.9114 34.4467 28.7464 35.0999 28.3862L56.8275 16.4046L49.5805 20.7806L51.7089 19.6237L36.1403 28.8964L35.5872 29.2304C35.1839 29.474 34.841 29.7687 34.5585 30.0992C36.7326 31.6243 39.361 32.5468 42.2022 32.6253L48.8628 32.8092L42.2022 32.9931C39.3609 33.0715 36.7325 33.9941 34.5584 35.5193C34.8409 35.8498 35.1839 36.1445 35.5872 36.3881L56.8275 49.214L48.1746 44.4423L51.546 46.5061L34.8944 37.1915C34.5706 37.0104 34.2378 36.8776 33.9025 36.7892C33.6302 36.7337 33.3572 36.707 33.0871 36.7069C30.9235 38.7081 29.3937 41.3843 28.8306 44.403L28.4138 65.6187L28.2494 57.2516L28.1837 59.8062L27.9727 44.2769C27.3909 41.3098 25.8738 38.6801 23.7403 36.7069C23.0692 36.7071 22.3808 36.8721 21.7277 37.2323L-1.90735e-05 49.214L21.2403 36.3881C21.6436 36.1445 21.9866 35.8498 22.2691 35.5193C20.095 33.9941 17.4665 33.0715 14.6252 32.9931L7.96464 32.8092L14.6252 32.6253C17.4665 32.5468 20.0949 31.6243 22.269 30.0991C21.9865 29.7686 21.6436 29.474 21.2403 29.2304L-1.90735e-05 16.4046L21.7276 28.3862C22.3808 28.7464 23.0691 28.9114 23.7402 28.9116C25.904 26.9103 27.4339 24.2338 27.997 21.2149L28.4138 -0.0001502Z" fill="#232323"/>
</svg>
